<?xml version="1.0" encoding="utf-8"?>
<!-- Generator: Adobe Illustrator 26.0.2, SVG Export Plug-In . SVG Version: 6.00 Build 0)  -->
<svg version="1.1" id="Layer_1" xmlns="http://www.w3.org/2000/svg" xmlns:xlink="http://www.w3.org/1999/xlink" x="0px" y="0px"
	 viewBox="0 0 32 32" style="enable-background:new 0 0 32 32;" xml:space="preserve">
<style type="text/css">
	.st0{fill:#18171C;}
</style>
<path class="st0" d="M32,21.8c0,0.7-0.1,1.3-0.2,1.9c-0.1,0.5-0.3,1.1-0.6,1.6l0,0c-0.1,0.1-0.1,0.2-0.2,0.4c-0.8,1.4-2,2.5-3.5,3.2
	c0.1-0.4,0.2-0.8,0.2-1.3c0-1-0.4-2-1.1-2.7c-0.7-0.7-1.7-1.2-2.8-1.2H5.8c-0.5,0-1,0.4-1,1s0.4,1,1,1h17.9c1.1,0,1.9,0.9,1.9,1.9
	s-0.9,1.9-1.9,1.9H5.8c-2.3,0-4.3-1.7-4.8-3.9C1,25.3,1,25,1,24.7s0-0.7,0.1-1c0.5-2.2,2.4-3.9,4.8-3.9h17.9c0.3,0,0.6,0,1,0.1l0,0
	l0,0c1.2,0.1,2.4,0.6,3.4,1.2c-0.1-0.5-0.2-0.9-0.5-1.3c-0.7-1.2-1.9-1.9-3.4-1.9H7.8c-2.9,0-5.4-1.6-6.7-3.9
	c-0.4-0.6-0.6-1.2-0.8-1.9C0.1,11.5,0,10.8,0,10.1c0-0.7,0.1-1.3,0.2-1.9c0.1-0.3,0.2-0.7,0.3-1c0.1-0.3,0.3-0.7,0.5-1
	C1.7,5,2.8,4,4,3.3C3.9,3.7,3.9,4,3.9,4.3c0,1.2,0.5,2.2,1.3,2.9c0.7,0.6,1.6,1,2.6,1h18.4c0.5,0,1-0.4,1-1s-0.4-1-1-1H7.8
	c-1.1,0-1.9-0.9-1.9-1.9c0-1.1,0.8-1.9,1.9-1.9c0,0,0,0,0.1,0h18.4c2.3,0,4.3,1.7,4.8,3.9C31,6.6,31,6.9,31,7.2s0,0.7-0.1,1
	c-0.5,2.2-2.4,3.9-4.8,3.9H7.8c0,0,0,0-0.1,0c-1.3,0-2.6-0.4-3.7-1c0.1,0.3,0.2,0.7,0.4,1C5.1,13.2,6.3,14,7.8,14h16.5
	c2.9,0,5.4,1.6,6.7,3.9c0.4,0.6,0.6,1.2,0.8,1.9C31.9,20.5,32,21.1,32,21.8z"/>
</svg>
