<?xml version="1.0" encoding="utf-8"?>
<!-- Generator: Adobe Illustrator 26.0.2, SVG Export Plug-In . SVG Version: 6.00 Build 0)  -->
<svg version="1.1" id="Layer_1" xmlns="http://www.w3.org/2000/svg" xmlns:xlink="http://www.w3.org/1999/xlink" x="0px" y="0px"
	 viewBox="0 0 512 512" style="enable-background:new 0 0 512 512;" xml:space="preserve">
<style type="text/css">
	.st0{fill:#FFFFFF;}
</style>
<path class="st0" d="M512,349.1c0,10.7-1.4,21.1-3.9,31c-2.3,8.8-5.4,17.1-9.5,25l0,0c-1,2-2.1,4-3.2,6
	c-13,22.4-32.8,40.4-56.5,51.1c2.2-6.3,3.3-13.1,3.3-20.1c0-16.8-6.7-32-17.5-43.1c-11.3-11.7-27.1-18.9-44.6-18.9h-287
	c-8.6,0-15.5,6.9-15.5,15.5s6.9,15.5,15.5,15.5h287c17.1,0,31,13.9,31,31s-13.9,31-31,31h-287c-37.5,0-68.8-26.7-76-62.1
	c-1-5-1.6-10.2-1.6-15.5S16,385,17.1,380c7.2-35.4,38.5-62.1,76-62.1h287c5.2,0,10.3,0.3,15.4,0.9l0,0l0,0
	c19.6,2.4,37.9,9.5,53.6,20c-1.2-7.5-3.8-14.6-7.5-20.9c-10.7-18.5-30.8-31-53.8-31H124.1c-45.9,0-86-25-107.5-62.1
	c-5.6-9.6-9.9-20-12.7-31C1.4,184,0,173.6,0,162.9c0-10.7,1.4-21.1,3.9-31c1.4-5.3,3.1-10.5,5.1-15.5c2.2-5.4,4.7-10.6,7.6-15.5
	C27.9,81.4,44.3,65.2,64,54.3c-1.3,5-2,10.2-2,15.5c0,18.5,8.1,35.2,21,46.5c10.9,9.7,25.3,15.5,41,15.5h294.8
	c8.6,0,15.5-6.9,15.5-15.5s-6.9-15.5-15.5-15.5H124.1c-17.1,0-31-13.9-31-31c0-16.9,13.5-30.6,30.2-31c0.3,0,0.5,0,0.8,0h294.8
	c37.5,0,68.8,26.7,76,62.1c1,5,1.6,10.2,1.6,15.5s-0.5,10.5-1.6,15.5c-7.2,35.4-38.5,62.1-76,62.1H124.1c-0.3,0-0.5,0-0.8,0
	c-21.5-0.1-41.7-5.7-59.3-15.5c1.4,5.5,3.6,10.7,6.3,15.5c10.7,18.5,30.8,31,53.8,31h263.8c45.9,0,86,25,107.5,62.1
	c5.6,9.6,9.9,20,12.7,31C510.6,328,512,338.4,512,349.1z"/>
</svg>
